normalP091_grf.mot
version=1
nRows=17
nColumns=19
inDegrees=yes
endheader
time	1_ground_force_vx	1_ground_force_vy	1_ground_force_vz	1_ground_force_px	1_ground_force_py	1_ground_force_pz	1_ground_torque_x	1_ground_torque_y	1_ground_torque_z	2_ground_force_vx	2_ground_force_vy	2_ground_force_vz	2_ground_force_px	2_ground_force_py	2_ground_force_pz	2_ground_torque_x	2_ground_torque_y	2_ground_torque_z
            1.250000	         -156.889997	          727.533366	          -44.881699	            0.177564	            0.002957	           -0.137574	            0.022451	           -0.104110	            0.006423	            0.001094	            0.718774	            0.015557	            0.907027	            0.000644	           -0.250824	            0.021085	           -0.000586	            0.162509
            1.251000	         -155.983769	          728.727178	          -44.610123	            0.177568	            0.002957	           -0.137503	            0.024021	           -0.112220	            0.006870	           -0.009524	           -0.079866	           -0.009754	            0.907027	            0.000644	           -0.250824	            0.021036	            0.000139	            0.037638
            1.252000	         -155.001878	          729.680323	          -44.476926	            0.177840	            0.002956	           -0.137589	            0.034393	           -0.161906	            0.009869	            0.014379	            0.158621	            0.014017	            0.907027	            0.000644	           -0.250824	           -0.062913	           -0.002661	            0.141646
            1.253000	         -154.052811	          730.078105	          -44.283801	            0.177480	            0.002957	           -0.137667	            0.039356	           -0.186515	            0.011313	            0.039447	            0.718748	           -0.046003	            0.907027	            0.000644	           -0.250824	           -0.079466	           -0.008630	           -0.004123
            1.254000	         -152.992031	          731.667245	          -44.072502	            0.177971	            0.002956	           -0.137753	            0.054187	           -0.259143	            0.015610	           -0.015445	            0.399703	           -0.023873	            0.907027	            0.000644	           -0.250824	           -0.012483	            0.000423	           -0.003859
            1.255000	         -151.958653	          732.063144	          -43.971051	            0.177898	            0.002956	           -0.137657	            0.051506	           -0.248130	            0.014904	            0.029574	            0.158590	            0.005753	            0.907027	            0.000644	           -0.250824	           -0.062835	           -0.002781	            0.141505
            1.256000	         -150.891904	          733.175617	          -43.799097	            0.178080	            0.002955	           -0.137852	            0.066926	           -0.325188	            0.019426	            0.069914	            0.718504	            0.007182	            0.907027	            0.000644	           -0.250824	           -0.146592	            0.007233	           -0.128699
            1.257000	         -149.815778	          732.691334	          -43.783834	            0.178112	            0.002955	           -0.137822	            0.068610	           -0.335547	            0.020051	            0.020963	           -0.080674	            0.043320	            0.907027	            0.000644	           -0.250824	           -0.046103	            0.001210	            0.037643
            1.258000	         -148.690757	          733.007499	          -43.766702	            0.178051	            0.002956	           -0.137823	            0.069855	           -0.344365	            0.020561	            0.045752	            0.398114	           -0.001336	            0.907027	            0.000644	           -0.250824	           -0.079607	            0.004097	            0.162410
            1.259000	         -147.570330	          732.124946	          -43.821182	            0.177990	            0.002956	           -0.137721	            0.063966	           -0.317350	            0.018995	            0.036111	           -0.159946	           -0.002651	            0.907027	            0.000644	           -0.250824	            0.037721	           -0.003425	            0.058540
            1.260000	         -146.386441	          731.800486	          -43.920348	            0.178163	            0.002954	           -0.137537	            0.062390	           -0.311895	            0.018719	           -0.010474	           -0.319620	            0.027867	            0.907027	            0.000644	           -0.250824	            0.004139	            0.009742	           -0.024501
            1.261000	         -145.248513	          731.477148	          -44.034779	            0.177997	            0.002955	           -0.137673	            0.061425	           -0.309337	            0.018622	           -0.018690	           -0.480533	           -0.018665	            0.907027	            0.000644	           -0.250824	           -0.029406	           -0.001261	            0.183127
            1.262000	         -144.009478	          729.635356	          -44.106730	            0.178000	            0.002955	           -0.137468	            0.055773	           -0.282579	            0.017082	           -0.018719	           -0.479680	            0.012200	            0.907027	            0.000644	           -0.250824	           -0.029384	            0.017016	           -0.024572
            1.263000	         -142.748439	          729.548490	          -44.258943	            0.178295	            0.002954	           -0.137740	            0.065817	           -0.336372	            0.020406	           -0.001007	            0.159792	           -0.016841	            0.907027	            0.000644	           -0.250824	           -0.029276	            0.005769	           -0.024659
            1.264000	         -141.464252	          727.469028	          -44.331258	            0.178005	            0.002955	           -0.137528	            0.055539	           -0.285606	            0.017405	            0.021980	            0.159643	            0.006194	            0.907027	            0.000644	           -0.250824	           -0.029186	            0.008619	           -0.024792
            1.265000	         -140.155486	          727.781627	          -44.459311	            0.178169	            0.002955	           -0.137932	            0.065229	           -0.338715	            0.020692	            0.014579	            0.239354	           -0.024440	            0.907027	            0.000644	           -0.250824	           -0.012390	            0.008289	            0.079128
            1.266000	         -138.848094	          725.701692	          -44.600466	            0.177993	            0.002955	           -0.137540	            0.051618	           -0.269784	            0.016580	            0.057640	           -0.560081	           -0.003571	            0.907027	            0.000644	           -0.250824	           -0.046317	            0.011441	           -0.003604
